<svg width="50" height="50" viewBox="0 0 50 50" fill="none" xmlns="http://www.w3.org/2000/svg">
<path fill-rule="evenodd" clip-rule="evenodd" d="M18.5951 34.1458H29.8163C30.662 34.1458 31.3633 33.4375 31.3633 32.5833C31.3633 31.7292 30.662 31.0417 29.8163 31.0417H18.5951C17.7494 31.0417 17.0481 31.7292 17.0481 32.5833C17.0481 33.4375 17.7494 34.1458 18.5951 34.1458ZM25.5671 20.625H18.5951C17.7494 20.625 17.0481 21.3333 17.0481 22.1875C17.0481 23.0417 17.7494 23.7292 18.5951 23.7292H25.5671C26.4128 23.7292 27.1141 23.0417 27.1141 22.1875C27.1141 21.3333 26.4128 20.625 25.5671 20.625ZM40.2875 18.8034C40.7723 18.7978 41.3003 18.7917 41.7799 18.7917C42.2956 18.7917 42.7082 19.2083 42.7082 19.7292V36.4792C42.7082 41.6458 38.5621 45.8333 33.4466 45.8333H17.0275C11.6644 45.8333 7.2915 41.4375 7.2915 36.0208V13.5625C7.2915 8.39584 11.4582 4.16667 16.5943 4.16667H27.6092C28.1455 4.16667 28.558 4.60417 28.558 5.12501V11.8333C28.558 15.6458 31.6727 18.7708 35.4474 18.7917C36.3291 18.7917 37.1065 18.7983 37.7867 18.804C38.3159 18.8085 38.7864 18.8125 39.2016 18.8125C39.4952 18.8125 39.8758 18.8081 40.2875 18.8034ZM40.8563 15.7625C39.1607 15.7688 37.162 15.7625 35.7243 15.7479C33.4429 15.7479 31.5638 13.85 31.5638 11.5458V6.05417C31.5638 5.15626 32.6426 4.71042 33.2593 5.35834C34.3747 6.52963 35.907 8.13929 37.4327 9.742C38.9572 11.3434 40.4751 12.938 41.5638 14.0813C42.1661 14.7125 41.7247 15.7604 40.8563 15.7625Z" fill="#2D2D2D"/>
</svg>
