<svg width="50" height="50" viewBox="0 0 50 50" fill="none" xmlns="http://www.w3.org/2000/svg">
<path d="M18.7498 4.16667C13.2915 4.16667 8.854 8.60417 8.854 14.0625C8.854 19.4167 13.0415 23.75 18.4998 23.9375C18.6665 23.9167 18.8332 23.9167 18.9582 23.9375C18.9998 23.9375 19.0207 23.9375 19.0623 23.9375C19.0832 23.9375 19.0832 23.9375 19.104 23.9375C24.4373 23.75 28.6248 19.4167 28.6457 14.0625C28.6457 8.60417 24.2082 4.16667 18.7498 4.16667Z" fill="#2D2D2D"/>
<path d="M29.333 29.4789C23.5205 25.6039 14.0413 25.6039 8.18717 29.4789C5.54134 31.2498 4.08301 33.6456 4.08301 36.2081C4.08301 38.7706 5.54134 41.1456 8.16634 42.8956C11.083 44.8539 14.9163 45.8331 18.7497 45.8331C22.583 45.8331 26.4163 44.8539 29.333 42.8956C31.958 41.1248 33.4163 38.7498 33.4163 36.1664C33.3955 33.6039 31.958 31.2289 29.333 29.4789Z" fill="#2D2D2D"/>
<path d="M41.646 15.2919C41.9793 19.3335 39.1043 22.8752 35.1252 23.3544C35.1043 23.3544 35.1043 23.3544 35.0835 23.3544H35.021C34.896 23.3544 34.771 23.3544 34.6668 23.396C32.646 23.5002 30.7918 22.8544 29.396 21.6669C31.5418 19.7502 32.771 16.8752 32.521 13.7502C32.3752 12.0627 31.7918 10.521 30.9168 9.20855C31.7085 8.81271 32.6252 8.56271 33.5627 8.47938C37.646 8.12521 41.2918 11.1669 41.646 15.2919Z" fill="#2D2D2D"/>
<path d="M45.8127 34.5625C45.646 36.5833 44.3543 38.3333 42.1877 39.5208C40.1043 40.6667 37.4793 41.2083 34.8752 41.1458C36.3752 39.7917 37.2502 38.1042 37.4168 36.3125C37.6252 33.7292 36.396 31.25 33.9377 29.2708C32.5418 28.1667 30.9168 27.2917 29.146 26.6458C33.7502 25.3125 39.5418 26.2083 43.1043 29.0833C45.021 30.625 46.0002 32.5625 45.8127 34.5625Z" fill="#2D2D2D"/>
</svg>
