<svg width="50" height="50" viewBox="0 0 50 50" fill="none" xmlns="http://www.w3.org/2000/svg">
<path d="M42.7082 33.3333V38.5417C42.7082 42.5625 39.4373 45.8333 35.4165 45.8333H14.5832C10.5623 45.8333 7.2915 42.5625 7.2915 38.5417V37.1875C7.2915 33.9167 9.95817 31.25 13.229 31.25H40.6248C41.7707 31.25 42.7082 32.1875 42.7082 33.3333Z" fill="#2D2D2D"/>
<path d="M32.2915 4.16667H17.7082C9.37484 4.16667 7.2915 6.25001 7.2915 14.5833V30.375C8.87484 28.9792 10.9582 28.125 13.229 28.125H40.6248C41.7707 28.125 42.7082 27.1875 42.7082 26.0417V14.5833C42.7082 6.25001 40.6248 4.16667 32.2915 4.16667ZM27.0832 22.3958H16.6665C15.8123 22.3958 15.104 21.6875 15.104 20.8333C15.104 19.9792 15.8123 19.2708 16.6665 19.2708H27.0832C27.9373 19.2708 28.6457 19.9792 28.6457 20.8333C28.6457 21.6875 27.9373 22.3958 27.0832 22.3958ZM33.3332 15.1042H16.6665C15.8123 15.1042 15.104 14.3958 15.104 13.5417C15.104 12.6875 15.8123 11.9792 16.6665 11.9792H33.3332C34.1873 11.9792 34.8957 12.6875 34.8957 13.5417C34.8957 14.3958 34.1873 15.1042 33.3332 15.1042Z" fill="#2D2D2D"/>
</svg>
