<svg width="59" height="53" viewBox="0 0 59 53" fill="none" xmlns="http://www.w3.org/2000/svg">
<path d="M58.3625 6.32917V41.0083C58.3625 43.8375 56.0583 46.4333 53.2291 46.7833L52.325 46.9C47.5416 47.5417 40.8041 49.525 35.3791 51.8C33.4833 52.5875 31.3833 51.1583 31.3833 49.0875V8.51667C31.3833 7.4375 31.9958 6.44583 32.9583 5.92083C38.2958 3.03333 46.375 0.466667 51.8583 0H52.0333C55.5333 0 58.3625 2.82917 58.3625 6.32917Z" fill="#2D2D2D"/>
<path d="M25.4333 5.92083C20.0958 3.03333 12.0167 0.466667 6.53333 0H6.32917C2.82917 0 0 2.82917 0 6.32917V41.0083C0 43.8375 2.30417 46.4333 5.13333 46.7833L6.0375 46.9C10.8208 47.5417 17.5583 49.525 22.9833 51.8C24.8792 52.5875 26.9792 51.1583 26.9792 49.0875V8.51667C26.9792 7.40833 26.3958 6.44583 25.4333 5.92083ZM8.77917 14.7583H15.3417C16.5375 14.7583 17.5292 15.75 17.5292 16.9458C17.5292 18.1708 16.5375 19.1333 15.3417 19.1333H8.77917C7.58333 19.1333 6.59167 18.1708 6.59167 16.9458C6.59167 15.75 7.58333 14.7583 8.77917 14.7583ZM17.5292 27.8833H8.77917C7.58333 27.8833 6.59167 26.9208 6.59167 25.6958C6.59167 24.5 7.58333 23.5083 8.77917 23.5083H17.5292C18.725 23.5083 19.7167 24.5 19.7167 25.6958C19.7167 26.9208 18.725 27.8833 17.5292 27.8833Z" fill="#2D2D2D"/>
</svg>
